<svg xmlns="http://www.w3.org/2000/svg" viewBox="127.6 0 453.5 453.5">
    <polygon points="403.7,159 428.5,159 403.7,134.2"/>
    <path d="M354.3 0C229.1 0 127.6 101.5 127.6 226.8s101.5 226.8 226.8 226.8S581.1 352 581.1 226.8C581.2 101.5 479.6 0 354.3 0zM181.6 220.7l61.7-61.7h24.5V72.5l24.9-24.7V159h12.4V97.2l24.4-24.7v148.2h-24.4v-37.3h-49.5l-12.4 12.4h49.4v24.9h-111zM261.8 381h-24.9V233.2h24.9v49.2l24.7-49.2h24.7l-49.3 98.6-.1 49.2zm86.6 0h-24.9v-36.9h-24.9V381h-24.4v-49.2l49.2-98.6h25V381zM342 220.7V60.1l12.4-12.4 12.4 12.4v160.5l-24.8.1zM385.3 381h-24.9V233.2h24.9v49.2l24.7-49.2h24.7l-49.4 98.6V381zm86.5 0h-24.9v-36.9H422V381h-24.4v-49.2l49.3-98.6h24.9V381zm-55.7-160.3v-24.9h49.4l-12.4-12.4h-49.5v37.3h-24.4V72.5l148 148.2H416.1z"/>
    <polygon points="323.5,319.3 323.5,282.3 305,319.3"/>
    <polygon points="446.9,319.3 446.9,282.3 428.5,319.3"/>
</svg>
